<?xml version="1.0" encoding="UTF-8" standalone="no"?>
<!DOCTYPE svg PUBLIC "-//W3C//DTD SVG 1.1//EN"
 "http://www.w3.org/Graphics/SVG/1.1/DTD/svg11.dtd">
<!-- Generated by graphviz version 2.50.0 (20211204.2007)
 -->
<!-- Title: G Pages: 1 -->
<svg width="1887pt" height="476pt"
 viewBox="0.00 0.00 1886.64 476.21" xmlns="http://www.w3.org/2000/svg" xmlns:xlink="http://www.w3.org/1999/xlink">
<g id="graph0" class="graph" transform="scale(1 1) rotate(0) translate(4 472.21)">
<title>G</title>
<polygon fill="white" stroke="transparent" points="-4,4 -4,-472.21 1882.64,-472.21 1882.64,4 -4,4"/>
<!-- v2 -->
<g id="node1" class="node">
<title>v2</title>
<ellipse fill="none" stroke="black" cx="623.64" cy="-450.21" rx="79.09" ry="18"/>
<text text-anchor="middle" x="623.64" y="-446.51" font-family="Times,serif" font-size="14.00">(2) definitionResult</text>
</g>
<!-- v14 -->
<g id="node11" class="node">
<title>v14</title>
<ellipse fill="none" stroke="black" cx="857.64" cy="-363.21" rx="289.75" ry="18"/>
<text text-anchor="middle" x="857.64" y="-359.51" font-family="Times,serif" font-size="14.00">(14) range {&quot;start&quot;:{&quot;line&quot;:1,&quot;character&quot;:11},&quot;end&quot;:{&quot;line&quot;:1,&quot;character&quot;:19}}</text>
</g>
<!-- v2&#45;&gt;v14 -->
<g id="edge2" class="edge">
<title>v2&#45;&gt;v14</title>
<path fill="none" stroke="black" d="M663.87,-434.6C701.81,-420.81 759.05,-400.02 801.48,-384.61"/>
<polygon fill="black" stroke="black" points="802.91,-387.81 811.12,-381.11 800.52,-381.23 802.91,-387.81"/>
<text text-anchor="middle" x="781.64" y="-403.01" font-family="Times,serif" font-size="14.00">(16) item</text>
</g>
<!-- v3 -->
<g id="node2" class="node">
<title>v3</title>
<ellipse fill="none" stroke="black" cx="396.64" cy="-276.21" rx="53.89" ry="18"/>
<text text-anchor="middle" x="396.64" y="-272.51" font-family="Times,serif" font-size="14.00">(3) resultSet</text>
</g>
<!-- v3&#45;&gt;v2 -->
<g id="edge9" class="edge">
<title>v3&#45;&gt;v2</title>
<path fill="none" stroke="black" d="M392.81,-294.43C388.86,-316.97 385.77,-356.49 405.64,-381.21 436.95,-420.13 490.25,-437.22 536.31,-444.53"/>
<polygon fill="black" stroke="black" points="535.93,-448.01 546.32,-445.98 536.93,-441.08 535.93,-448.01"/>
<text text-anchor="middle" x="482.14" y="-359.51" font-family="Times,serif" font-size="14.00">(6) textDocument/definition</text>
</g>
<!-- v4 -->
<g id="node3" class="node">
<title>v4</title>
<ellipse fill="none" stroke="black" cx="78.64" cy="-147.1" rx="78.79" ry="18"/>
<text text-anchor="middle" x="78.64" y="-143.4" font-family="Times,serif" font-size="14.00">(4) referenceResult</text>
</g>
<!-- v3&#45;&gt;v4 -->
<g id="edge10" class="edge">
<title>v3&#45;&gt;v4</title>
<path fill="none" stroke="black" d="M344.35,-271.67C305.39,-267.6 251.57,-258.86 207.64,-240.21 168.27,-223.49 129.16,-193.12 104.5,-171.84"/>
<polygon fill="black" stroke="black" points="106.54,-168.97 96.71,-165 101.92,-174.23 106.54,-168.97"/>
<text text-anchor="middle" x="286.14" y="-229.01" font-family="Times,serif" font-size="14.00">(7) textDocument/references</text>
</g>
<!-- v5 -->
<g id="node7" class="node">
<title>v5</title>
<ellipse fill="none" stroke="black" cx="320.64" cy="-147.1" rx="145.83" ry="60.21"/>
<text text-anchor="middle" x="320.64" y="-174.4" font-family="Times,serif" font-size="14.00">(5) hoverResult &quot;definition hello().</text>
<text text-anchor="middle" x="320.64" y="-143.4" font-family="Times,serif" font-size="14.00">&#45;&#45;&#45;</text>
<text text-anchor="middle" x="320.64" y="-112.4" font-family="Times,serif" font-size="14.00">: hello is a method&quot;</text>
</g>
<!-- v3&#45;&gt;v5 -->
<g id="edge11" class="edge">
<title>v3&#45;&gt;v5</title>
<path fill="none" stroke="black" d="M386.55,-258.33C379.7,-246.88 370.16,-230.92 360.46,-214.69"/>
<polygon fill="black" stroke="black" points="363.21,-212.47 355.07,-205.68 357.2,-216.06 363.21,-212.47"/>
<text text-anchor="middle" x="440.64" y="-229.01" font-family="Times,serif" font-size="14.00">(8) textDocument/hover</text>
</g>
<!-- v9 -->
<g id="node8" class="node">
<title>v9</title>
<ellipse fill="none" stroke="black" cx="973.64" cy="-147.1" rx="489.31" ry="18"/>
<text text-anchor="middle" x="973.64" y="-143.4" font-family="Times,serif" font-size="14.00">(9) moniker {&quot;Kind&quot;:&quot;export&quot;,&quot;Scheme&quot;:&quot;repro_lang&quot;,&quot;Identifier&quot;:&quot;repro_lang repro_manager basic 1.0.0 basic/basic.repro/hello()..&quot;}</text>
</g>
<!-- v3&#45;&gt;v9 -->
<g id="edge12" class="edge">
<title>v3&#45;&gt;v9</title>
<path fill="none" stroke="black" d="M440.49,-265.55C535.61,-244.6 762.42,-194.63 887.38,-167.11"/>
<polygon fill="black" stroke="black" points="888.29,-170.49 897.3,-164.92 886.79,-163.65 888.29,-170.49"/>
<text text-anchor="middle" x="653.14" y="-229.01" font-family="Times,serif" font-size="14.00">(10) moniker</text>
</g>
<!-- v19 -->
<g id="node4" class="node">
<title>v19</title>
<ellipse fill="none" stroke="black" cx="1564.64" cy="-147.1" rx="83.39" ry="18"/>
<text text-anchor="middle" x="1564.64" y="-143.4" font-family="Times,serif" font-size="14.00">(19) referenceResult</text>
</g>
<!-- v17 -->
<g id="node12" class="node">
<title>v17</title>
<ellipse fill="none" stroke="black" cx="1483.64" cy="-363.21" rx="289.75" ry="18"/>
<text text-anchor="middle" x="1483.64" y="-359.51" font-family="Times,serif" font-size="14.00">(17) range {&quot;start&quot;:{&quot;line&quot;:2,&quot;character&quot;:10},&quot;end&quot;:{&quot;line&quot;:2,&quot;character&quot;:18}}</text>
</g>
<!-- v19&#45;&gt;v17 -->
<g id="edge8" class="edge">
<title>v19&#45;&gt;v17</title>
<path fill="none" stroke="black" d="M1549.72,-164.97C1532.59,-185.43 1505.25,-221.73 1492.64,-258.21 1483.98,-283.27 1482.28,-313.64 1482.41,-335.08"/>
<polygon fill="black" stroke="black" points="1478.92,-335.18 1482.61,-345.11 1485.91,-335.05 1478.92,-335.18"/>
<text text-anchor="middle" x="1518.64" y="-272.51" font-family="Times,serif" font-size="14.00">(24) item</text>
</g>
<!-- v18 -->
<g id="node5" class="node">
<title>v18</title>
<ellipse fill="none" stroke="black" cx="1611.64" cy="-276.21" rx="58.49" ry="18"/>
<text text-anchor="middle" x="1611.64" y="-272.51" font-family="Times,serif" font-size="14.00">(18) resultSet</text>
</g>
<!-- v18&#45;&gt;v19 -->
<g id="edge3" class="edge">
<title>v18&#45;&gt;v19</title>
<path fill="none" stroke="black" d="M1583.82,-260.32C1576.59,-255 1569.7,-248.28 1565.64,-240.21 1555.53,-220.07 1556.24,-194.2 1558.93,-175.01"/>
<polygon fill="black" stroke="black" points="1562.39,-175.55 1560.57,-165.11 1555.49,-174.4 1562.39,-175.55"/>
<text text-anchor="middle" x="1647.14" y="-229.01" font-family="Times,serif" font-size="14.00">(21) textDocument/references</text>
</g>
<!-- v20 -->
<g id="node6" class="node">
<title>v20</title>
<ellipse fill="none" stroke="black" cx="1750.64" cy="-147.1" rx="80.69" ry="18"/>
<text text-anchor="middle" x="1750.64" y="-143.4" font-family="Times,serif" font-size="14.00">(20) hoverResult &quot;&quot;</text>
</g>
<!-- v18&#45;&gt;v20 -->
<g id="edge4" class="edge">
<title>v18&#45;&gt;v20</title>
<path fill="none" stroke="black" d="M1667.37,-270.45C1689.2,-265.84 1712.77,-257 1728.64,-240.21 1744.92,-222.99 1749.84,-195.97 1751.04,-175.64"/>
<polygon fill="black" stroke="black" points="1754.54,-175.53 1751.36,-165.43 1747.54,-175.31 1754.54,-175.53"/>
<text text-anchor="middle" x="1809.14" y="-229.01" font-family="Times,serif" font-size="14.00">(22) textDocument/hover</text>
</g>
<!-- v11 -->
<g id="node9" class="node">
<title>v11</title>
<ellipse fill="none" stroke="black" cx="973.64" cy="-18" rx="233.16" ry="18"/>
<text text-anchor="middle" x="973.64" y="-14.3" font-family="Times,serif" font-size="14.00">(11) packageInformation {&quot;Name&quot;:&quot;basic&quot;,&quot;Version&quot;:&quot;1.0.0&quot;}</text>
</g>
<!-- v9&#45;&gt;v11 -->
<g id="edge13" class="edge">
<title>v9&#45;&gt;v11</title>
<path fill="none" stroke="black" d="M973.64,-128.96C973.64,-107.83 973.64,-71.65 973.64,-46.59"/>
<polygon fill="black" stroke="black" points="977.14,-46.28 973.64,-36.28 970.14,-46.28 977.14,-46.28"/>
<text text-anchor="middle" x="1041.64" y="-57.8" font-family="Times,serif" font-size="14.00">(12) packageInformation</text>
</g>
<!-- v13 -->
<g id="node10" class="node">
<title>v13</title>
<ellipse fill="none" stroke="black" cx="1032.64" cy="-450.21" rx="165.17" ry="18"/>
<text text-anchor="middle" x="1032.64" y="-446.51" font-family="Times,serif" font-size="14.00">(13) document &quot;file:/root/basic/basic.repro&quot;</text>
</g>
<!-- v13&#45;&gt;v14 -->
<g id="edge5" class="edge">
<title>v13&#45;&gt;v14</title>
<path fill="none" stroke="black" d="M998.07,-432.41C970.47,-419.01 931.63,-400.15 901.79,-385.65"/>
<polygon fill="black" stroke="black" points="902.97,-382.33 892.44,-381.11 899.91,-388.63 902.97,-382.33"/>
<text text-anchor="middle" x="991.64" y="-403.01" font-family="Times,serif" font-size="14.00">(25) contains</text>
</g>
<!-- v13&#45;&gt;v17 -->
<g id="edge6" class="edge">
<title>v13&#45;&gt;v17</title>
<path fill="none" stroke="black" d="M1111.46,-434.35C1188.37,-419.86 1305.51,-397.78 1387.78,-382.28"/>
<polygon fill="black" stroke="black" points="1388.46,-385.71 1397.64,-380.42 1387.16,-378.83 1388.46,-385.71"/>
<text text-anchor="middle" x="1321.64" y="-403.01" font-family="Times,serif" font-size="14.00">(25) contains</text>
</g>
<!-- v14&#45;&gt;v3 -->
<g id="edge1" class="edge">
<title>v14&#45;&gt;v3</title>
<path fill="none" stroke="black" d="M769.85,-346.02C676.59,-328.83 531.96,-302.16 452.92,-287.58"/>
<polygon fill="black" stroke="black" points="453.15,-284.07 442.68,-285.7 451.88,-290.95 453.15,-284.07"/>
<text text-anchor="middle" x="680.64" y="-316.01" font-family="Times,serif" font-size="14.00">(15) next</text>
</g>
<!-- v17&#45;&gt;v18 -->
<g id="edge7" class="edge">
<title>v17&#45;&gt;v18</title>
<path fill="none" stroke="black" d="M1509.24,-345.21C1529.5,-331.76 1557.91,-312.89 1579.67,-298.44"/>
<polygon fill="black" stroke="black" points="1581.85,-301.19 1588.25,-292.74 1577.98,-295.36 1581.85,-301.19"/>
<text text-anchor="middle" x="1580.64" y="-316.01" font-family="Times,serif" font-size="14.00">(23) next</text>
</g>
</g>
</svg>
